<svg width="22" height="21" viewBox="0 0 22 21" fill="none" xmlns="http://www.w3.org/2000/svg">
	<path d="M8.48828 18.998C7.50391 18.998 6.73828 18.2324 6.73828 17.248H10.2109C10.2109 18.2324 9.44531 18.998 8.48828 18.998ZM14.3672 14.9238C14.5312 15.0879 14.6133 15.3066 14.6133 15.498C14.5859 15.9629 14.2578 16.373 13.7109 16.373H3.23828C2.69141 16.373 2.36328 15.9629 2.36328 15.498C2.33594 15.3066 2.41797 15.0879 2.58203 14.9238C3.10156 14.3496 4.11328 13.502 4.11328 10.6855C4.11328 8.58008 5.58984 6.88477 7.61328 6.44727V5.87305C7.61328 5.4082 7.99609 4.99805 8.48828 4.99805C8.95312 4.99805 9.33594 5.4082 9.33594 5.87305V6.44727C11.3594 6.88477 12.8359 8.58008 12.8359 10.6855C12.8359 13.502 13.8477 14.3496 14.3672 14.9238Z" fill="#44546F"/>
	<circle cx="15.9551" cy="6.7627" r="5" fill="#F5CD47" stroke="white" stroke-width="2"/>
</svg>
