<svg width="14" height="15" viewBox="0 0 14 15" fill="none" xmlns="http://www.w3.org/2000/svg">
	<path d="M7 14.6196C6.01562 14.6196 5.25 13.854 5.25 12.8696H8.72266C8.72266 13.854 7.95703 14.6196 7 14.6196ZM12.8789 10.5454C13.043 10.7095 13.125 10.9282 13.125 11.1196C13.0977 11.5845 12.7695 11.9946 12.2227 11.9946H1.75C1.20312 11.9946 0.875 11.5845 0.875 11.1196C0.847656 10.9282 0.929688 10.7095 1.09375 10.5454C1.61328 9.97119 2.625 9.12354 2.625 6.30713C2.625 4.20166 4.10156 2.50635 6.125 2.06885V1.49463C6.125 1.02979 6.50781 0.619629 7 0.619629C7.46484 0.619629 7.84766 1.02979 7.84766 1.49463V2.06885C9.87109 2.50635 11.3477 4.20166 11.3477 6.30713C11.3477 9.12354 12.3594 9.97119 12.8789 10.5454Z" fill="#44546F"/>
</svg>
