<svg width="334" height="79" viewBox="0 0 334 79" fill="none" xmlns="http://www.w3.org/2000/svg">
<path d="M34.9796 14.506C36.9877 11.9959 39.4978 9.48573 42.259 6.97559C51.5465 15.5101 58.3239 29.3159 58.3239 35.8422C58.3239 51.9071 45.2711 64.7089 29.4572 64.7089C13.3923 64.7089 0.3396 51.9071 0.3396 35.8422C0.3396 26.8057 9.37611 11.9959 22.1778 0.449219C26.9471 4.96748 31.4654 9.73675 34.9796 14.506ZM38.7448 48.895C44.7691 44.3767 46.2752 35.8422 43.012 29.3159C42.51 28.3118 42.008 27.5588 41.5059 26.5547L34.2265 35.3402C34.2265 35.3402 23.1819 20.2793 22.1778 19.0243C16.1535 26.5547 13.3923 31.073 13.3923 35.8422C13.3923 45.8828 20.4207 51.9071 29.4572 51.9071C32.9714 51.9071 36.2346 50.9031 38.7448 48.895Z" fill="#E4010B"/>
<path d="M34.9796 14.506C36.9877 11.9959 39.4978 9.48573 42.259 6.97559C51.5465 15.5101 58.3239 29.3159 58.3239 35.8422C58.3239 51.9071 45.2711 64.7089 29.4572 64.7089C13.3923 64.7089 0.3396 51.9071 0.3396 35.8422C0.3396 26.8057 9.37611 11.9959 22.1778 0.449219C26.9471 4.96748 31.4654 9.73675 34.9796 14.506ZM38.7448 48.895C44.7691 44.3767 46.2752 35.8422 43.012 29.3159C42.51 28.3118 42.008 27.5588 41.5059 26.5547L34.2265 35.3402C34.2265 35.3402 23.1819 20.2793 22.1778 19.0243C16.1535 26.5547 13.3923 31.073 13.3923 35.8422C13.3923 45.8828 20.4207 51.9071 29.4572 51.9071C32.9714 51.9071 36.2346 50.9031 38.7448 48.895Z" fill="#E4010B"/>
<path d="M34.9796 14.506C36.9877 11.9959 39.4978 9.48573 42.259 6.97559C51.5465 15.5101 58.3239 29.3159 58.3239 35.8422C58.3239 51.9071 45.2711 64.7089 29.4572 64.7089C13.3923 64.7089 0.3396 51.9071 0.3396 35.8422C0.3396 26.8057 9.37611 11.9959 22.1778 0.449219C26.9471 4.96748 31.4654 9.73675 34.9796 14.506ZM38.7448 48.895C44.7691 44.3767 46.2752 35.8422 43.012 29.3159C42.51 28.3118 42.008 27.5588 41.5059 26.5547L34.2265 35.3402C34.2265 35.3402 23.1819 20.2793 22.1778 19.0243C16.1535 26.5547 13.3923 31.073 13.3923 35.8422C13.3923 45.8828 20.4207 51.9071 29.4572 51.9071C32.9714 51.9071 36.2346 50.9031 38.7448 48.895Z" fill="#E4010B"/>
<path d="M34.9796 14.506C36.9877 11.9959 39.4978 9.48573 42.259 6.97559C51.5465 15.5101 58.3239 29.3159 58.3239 35.8422C58.3239 51.9071 45.2711 64.7089 29.4572 64.7089C13.3923 64.7089 0.3396 51.9071 0.3396 35.8422C0.3396 26.8057 9.37611 11.9959 22.1778 0.449219C26.9471 4.96748 31.4654 9.73675 34.9796 14.506ZM38.7448 48.895C44.7691 44.3767 46.2752 35.8422 43.012 29.3159C42.51 28.3118 42.008 27.5588 41.5059 26.5547L34.2265 35.3402C34.2265 35.3402 23.1819 20.2793 22.1778 19.0243C16.1535 26.5547 13.3923 31.073 13.3923 35.8422C13.3923 45.8828 20.4207 51.9071 29.4572 51.9071C32.9714 51.9071 36.2346 50.9031 38.7448 48.895Z" fill="#E4010B"/>
<path d="M34.9796 14.506C36.9877 11.9959 39.4978 9.48573 42.259 6.97559C51.5465 15.5101 58.3239 29.3159 58.3239 35.8422C58.3239 51.9071 45.2711 64.7089 29.4572 64.7089C13.3923 64.7089 0.3396 51.9071 0.3396 35.8422C0.3396 26.8057 9.37611 11.9959 22.1778 0.449219C26.9471 4.96748 31.4654 9.73675 34.9796 14.506ZM38.7448 48.895C44.7691 44.3767 46.2752 35.8422 43.012 29.3159C42.51 28.3118 42.008 27.5588 41.5059 26.5547L34.2265 35.3402C34.2265 35.3402 23.1819 20.2793 22.1778 19.0243C16.1535 26.5547 13.3923 31.073 13.3923 35.8422C13.3923 45.8828 20.4207 51.9071 29.4572 51.9071C32.9714 51.9071 36.2346 50.9031 38.7448 48.895Z" fill="#E4010B"/>
<path d="M34.9796 14.506C36.9877 11.9959 39.4978 9.48573 42.259 6.97559C51.5465 15.5101 58.3239 29.3159 58.3239 35.8422C58.3239 51.9071 45.2711 64.7089 29.4572 64.7089C13.3923 64.7089 0.3396 51.9071 0.3396 35.8422C0.3396 26.8057 9.37611 11.9959 22.1778 0.449219C26.9471 4.96748 31.4654 9.73675 34.9796 14.506ZM38.7448 48.895C44.7691 44.3767 46.2752 35.8422 43.012 29.3159C42.51 28.3118 42.008 27.5588 41.5059 26.5547L34.2265 35.3402C34.2265 35.3402 23.1819 20.2793 22.1778 19.0243C16.1535 26.5547 13.3923 31.073 13.3923 35.8422C13.3923 45.8828 20.4207 51.9071 29.4572 51.9071C32.9714 51.9071 36.2346 50.9031 38.7448 48.895Z" fill="#E4010B"/>
<path d="M34.9796 14.506C36.9877 11.9959 39.4978 9.48573 42.259 6.97559C51.5465 15.5101 58.3239 29.3159 58.3239 35.8422C58.3239 51.9071 45.2711 64.7089 29.4572 64.7089C13.3923 64.7089 0.3396 51.9071 0.3396 35.8422C0.3396 26.8057 9.37611 11.9959 22.1778 0.449219C26.9471 4.96748 31.4654 9.73675 34.9796 14.506ZM38.7448 48.895C44.7691 44.3767 46.2752 35.8422 43.012 29.3159C42.51 28.3118 42.008 27.5588 41.5059 26.5547L34.2265 35.3402C34.2265 35.3402 23.1819 20.2793 22.1778 19.0243C16.1535 26.5547 13.3923 31.073 13.3923 35.8422C13.3923 45.8828 20.4207 51.9071 29.4572 51.9071C32.9714 51.9071 36.2346 50.9031 38.7448 48.895Z" fill="#E4010B"/>
<path d="M34.9796 14.506C36.9877 11.9959 39.4978 9.48573 42.259 6.97559C51.5465 15.5101 58.3239 29.3159 58.3239 35.8422C58.3239 51.9071 45.2711 64.7089 29.4572 64.7089C13.3923 64.7089 0.3396 51.9071 0.3396 35.8422C0.3396 26.8057 9.37611 11.9959 22.1778 0.449219C26.9471 4.96748 31.4654 9.73675 34.9796 14.506ZM38.7448 48.895C44.7691 44.3767 46.2752 35.8422 43.012 29.3159C42.51 28.3118 42.008 27.5588 41.5059 26.5547L34.2265 35.3402C34.2265 35.3402 23.1819 20.2793 22.1778 19.0243C16.1535 26.5547 13.3923 31.073 13.3923 35.8422C13.3923 45.8828 20.4207 51.9071 29.4572 51.9071C32.9714 51.9071 36.2346 50.9031 38.7448 48.895Z" fill="#E4010B"/>
<path d="M317.268 65.9816C307.618 65.9816 300.472 58.8356 300.472 48.1473C300.472 37.6422 307.435 30.1909 317.085 30.1909C323.803 30.1909 332.659 33.9166 332.659 47.2922V49.3078H305.48C305.725 57.0644 310.672 61.6451 317.39 61.6451C322.887 61.6451 326.796 58.1027 328.628 53.5831L333.087 55.2321C330.583 61.9505 324.597 65.9816 317.268 65.9816ZM305.725 44.6049H327.59C327.346 37.2147 321.971 34.7106 317.024 34.7106C310.855 34.7106 306.641 38.8637 305.725 44.6049Z" fill="#172B4D"/>
<path d="M280.233 65.9816C270.399 65.9816 263.375 58.8356 263.375 48.1473C263.375 37.3979 270.399 30.1909 280.233 30.1909C286.401 30.1909 292.326 33.0615 294.952 39.902L290.432 41.6122C288.844 37.0925 284.935 34.5273 280.049 34.5273C272.842 34.5273 268.262 40.3906 268.262 48.0862C268.262 56.2704 273.331 61.6451 280.416 61.6451C286.157 61.6451 290.127 58.1027 292.02 53.2166L296.296 54.8046C293.669 62.0727 287.562 65.9816 280.233 65.9816Z" fill="#172B4D"/>
<path d="M239.053 65.9816C233.312 65.9816 228.243 63.0499 228.243 57.0644C228.243 50.6514 233.923 48.0252 240.275 46.7426C246.688 45.3989 250.902 45.2767 250.902 41.1236C250.902 37.5201 247.726 34.1609 242.779 34.1609C238.382 34.1609 235.145 36.7871 233.923 41.0014L229.403 39.4745C231.419 32.9393 237.282 30.1909 243.023 30.1909C249.436 30.1909 255.727 33.5501 255.727 41.5511V54.3771C255.727 59.9961 256.155 62.317 256.827 64.9433H252.124C251.513 62.6834 251.33 60.729 251.33 58.2249H251.208C249.131 62.6834 245.039 65.9816 239.053 65.9816ZM233.312 56.8201C233.312 60.1793 235.939 62.1948 239.97 62.1948C246.749 62.1948 250.963 55.904 250.963 51.5065V47.1701C249.07 48.5138 247.36 49.1245 243.145 49.9185C239.359 50.6514 233.312 52.0562 233.312 56.8201Z" fill="#172B4D"/>
<path d="M215.599 64.943V16.082H220.241V64.943H215.599Z" fill="#172B4D"/>
<path d="M174.742 78.38V31.1681H179.261V38.0087H179.383C182.315 32.695 186.957 30.1909 192.087 30.1909C201.127 30.1909 207.54 37.7033 207.54 48.0252C207.54 58.8356 200.577 65.9816 191.904 65.9816C186.285 65.9816 181.827 62.9888 179.383 58.4692V78.38H174.742ZM179.322 48.1473C179.322 56.1483 184.636 61.6451 191.11 61.6451C197.767 61.6451 202.592 55.904 202.592 48.0862C202.592 40.2074 197.706 34.5273 191.11 34.5273C184.636 34.5273 179.322 40.0853 179.322 48.1473Z" fill="#172B4D"/>
<path d="M151.098 65.9816C141.448 65.9816 134.302 58.8356 134.302 48.1473C134.302 37.6422 141.265 30.1909 150.915 30.1909C157.633 30.1909 166.489 33.9166 166.489 47.2922V49.3078H139.31C139.555 57.0644 144.502 61.6451 151.22 61.6451C156.717 61.6451 160.626 58.1027 162.458 53.5831L166.917 55.2321C164.413 61.9505 158.427 65.9816 151.098 65.9816ZM139.555 44.6049H161.42C161.176 37.2147 155.801 34.7106 150.854 34.7106C144.685 34.7106 140.471 38.8637 139.555 44.6049Z" fill="#172B4D"/>
<path d="M113.13 64.9433V31.1681H117.65V37.9476H117.894C119.604 33.3669 123.697 30.1909 128.644 30.1909C129.804 30.1909 131.148 30.3741 132.369 30.8628V35.9932C131.209 35.4435 129.316 35.1992 128.216 35.1992C120.948 35.1992 117.772 42.3451 117.772 48.9413V64.9433H113.13Z" fill="#172B4D"/>
<path d="M77.8569 64.9432V35.3212C76.1468 35.3212 74.4977 35.3212 72.7876 35.3212V31.1681H77.8569C77.8569 29.7633 77.8569 28.2364 77.8569 26.8316C77.8569 20.1133 79.6281 15.0439 87.1405 15.0439C89.3392 15.0439 91.5991 15.5326 93.3703 16.5708V20.7851C91.2937 19.5025 89.7057 19.075 87.9345 19.075C82.4987 19.075 82.4987 22.7395 82.4987 26.9538V31.1681C85.7357 31.1681 88.9117 31.1681 92.1487 31.1681V35.3212H82.4987C82.4987 45.1545 82.4987 55.0488 82.4987 64.9432H77.8569ZM96.6684 19.3193C96.6684 17.3648 98.1953 15.7158 100.333 15.7158C102.348 15.7158 103.875 17.3648 103.875 19.3193C103.875 21.3959 102.348 23.0449 100.333 23.0449C98.1953 23.0449 96.6684 21.3959 96.6684 19.3193ZM97.951 64.9432V31.1681H102.593V64.9432H97.951Z" fill="#172B4D"/>
</svg>
