<svg width="59" height="65" viewBox="0 0 59 65" fill="none" xmlns="http://www.w3.org/2000/svg">
<g id="calendar">
<path d="M34.9796 14.506C36.9877 11.9959 39.4978 9.48573 42.259 6.97559C51.5465 15.5101 58.3239 29.3159 58.3239 35.8422C58.3239 51.9071 45.2711 64.7089 29.4572 64.7089C13.3923 64.7089 0.3396 51.9071 0.3396 35.8422C0.3396 26.8057 9.37611 11.9959 22.1778 0.449219C26.9471 4.96748 31.4654 9.73675 34.9796 14.506ZM38.7448 48.895C44.7691 44.3767 46.2752 35.8422 43.012 29.3159C42.51 28.3118 42.008 27.5588 41.5059 26.5547L34.2265 35.3402C34.2265 35.3402 23.1819 20.2793 22.1778 19.0243C16.1535 26.5547 13.3923 31.073 13.3923 35.8422C13.3923 45.8828 20.4207 51.9071 29.4572 51.9071C32.9714 51.9071 36.2346 50.9031 38.7448 48.895Z" fill="#E4010B"/>
<path d="M34.9796 14.506C36.9877 11.9959 39.4978 9.48573 42.259 6.97559C51.5465 15.5101 58.3239 29.3159 58.3239 35.8422C58.3239 51.9071 45.2711 64.7089 29.4572 64.7089C13.3923 64.7089 0.3396 51.9071 0.3396 35.8422C0.3396 26.8057 9.37611 11.9959 22.1778 0.449219C26.9471 4.96748 31.4654 9.73675 34.9796 14.506ZM38.7448 48.895C44.7691 44.3767 46.2752 35.8422 43.012 29.3159C42.51 28.3118 42.008 27.5588 41.5059 26.5547L34.2265 35.3402C34.2265 35.3402 23.1819 20.2793 22.1778 19.0243C16.1535 26.5547 13.3923 31.073 13.3923 35.8422C13.3923 45.8828 20.4207 51.9071 29.4572 51.9071C32.9714 51.9071 36.2346 50.9031 38.7448 48.895Z" fill="#E4010B"/>
<path d="M34.9796 14.506C36.9877 11.9959 39.4978 9.48573 42.259 6.97559C51.5465 15.5101 58.3239 29.3159 58.3239 35.8422C58.3239 51.9071 45.2711 64.7089 29.4572 64.7089C13.3923 64.7089 0.3396 51.9071 0.3396 35.8422C0.3396 26.8057 9.37611 11.9959 22.1778 0.449219C26.9471 4.96748 31.4654 9.73675 34.9796 14.506ZM38.7448 48.895C44.7691 44.3767 46.2752 35.8422 43.012 29.3159C42.51 28.3118 42.008 27.5588 41.5059 26.5547L34.2265 35.3402C34.2265 35.3402 23.1819 20.2793 22.1778 19.0243C16.1535 26.5547 13.3923 31.073 13.3923 35.8422C13.3923 45.8828 20.4207 51.9071 29.4572 51.9071C32.9714 51.9071 36.2346 50.9031 38.7448 48.895Z" fill="#E4010B"/>
<path d="M34.9796 14.506C36.9877 11.9959 39.4978 9.48573 42.259 6.97559C51.5465 15.5101 58.3239 29.3159 58.3239 35.8422C58.3239 51.9071 45.2711 64.7089 29.4572 64.7089C13.3923 64.7089 0.3396 51.9071 0.3396 35.8422C0.3396 26.8057 9.37611 11.9959 22.1778 0.449219C26.9471 4.96748 31.4654 9.73675 34.9796 14.506ZM38.7448 48.895C44.7691 44.3767 46.2752 35.8422 43.012 29.3159C42.51 28.3118 42.008 27.5588 41.5059 26.5547L34.2265 35.3402C34.2265 35.3402 23.1819 20.2793 22.1778 19.0243C16.1535 26.5547 13.3923 31.073 13.3923 35.8422C13.3923 45.8828 20.4207 51.9071 29.4572 51.9071C32.9714 51.9071 36.2346 50.9031 38.7448 48.895Z" fill="#E4010B"/>
<path d="M34.9796 14.506C36.9877 11.9959 39.4978 9.48573 42.259 6.97559C51.5465 15.5101 58.3239 29.3159 58.3239 35.8422C58.3239 51.9071 45.2711 64.7089 29.4572 64.7089C13.3923 64.7089 0.3396 51.9071 0.3396 35.8422C0.3396 26.8057 9.37611 11.9959 22.1778 0.449219C26.9471 4.96748 31.4654 9.73675 34.9796 14.506ZM38.7448 48.895C44.7691 44.3767 46.2752 35.8422 43.012 29.3159C42.51 28.3118 42.008 27.5588 41.5059 26.5547L34.2265 35.3402C34.2265 35.3402 23.1819 20.2793 22.1778 19.0243C16.1535 26.5547 13.3923 31.073 13.3923 35.8422C13.3923 45.8828 20.4207 51.9071 29.4572 51.9071C32.9714 51.9071 36.2346 50.9031 38.7448 48.895Z" fill="#E4010B"/>
<path d="M34.9796 14.506C36.9877 11.9959 39.4978 9.48573 42.259 6.97559C51.5465 15.5101 58.3239 29.3159 58.3239 35.8422C58.3239 51.9071 45.2711 64.7089 29.4572 64.7089C13.3923 64.7089 0.3396 51.9071 0.3396 35.8422C0.3396 26.8057 9.37611 11.9959 22.1778 0.449219C26.9471 4.96748 31.4654 9.73675 34.9796 14.506ZM38.7448 48.895C44.7691 44.3767 46.2752 35.8422 43.012 29.3159C42.51 28.3118 42.008 27.5588 41.5059 26.5547L34.2265 35.3402C34.2265 35.3402 23.1819 20.2793 22.1778 19.0243C16.1535 26.5547 13.3923 31.073 13.3923 35.8422C13.3923 45.8828 20.4207 51.9071 29.4572 51.9071C32.9714 51.9071 36.2346 50.9031 38.7448 48.895Z" fill="#E4010B"/>
<path d="M34.9796 14.506C36.9877 11.9959 39.4978 9.48573 42.259 6.97559C51.5465 15.5101 58.3239 29.3159 58.3239 35.8422C58.3239 51.9071 45.2711 64.7089 29.4572 64.7089C13.3923 64.7089 0.3396 51.9071 0.3396 35.8422C0.3396 26.8057 9.37611 11.9959 22.1778 0.449219C26.9471 4.96748 31.4654 9.73675 34.9796 14.506ZM38.7448 48.895C44.7691 44.3767 46.2752 35.8422 43.012 29.3159C42.51 28.3118 42.008 27.5588 41.5059 26.5547L34.2265 35.3402C34.2265 35.3402 23.1819 20.2793 22.1778 19.0243C16.1535 26.5547 13.3923 31.073 13.3923 35.8422C13.3923 45.8828 20.4207 51.9071 29.4572 51.9071C32.9714 51.9071 36.2346 50.9031 38.7448 48.895Z" fill="#E4010B"/>
<path d="M34.9796 14.506C36.9877 11.9959 39.4978 9.48573 42.259 6.97559C51.5465 15.5101 58.3239 29.3159 58.3239 35.8422C58.3239 51.9071 45.2711 64.7089 29.4572 64.7089C13.3923 64.7089 0.3396 51.9071 0.3396 35.8422C0.3396 26.8057 9.37611 11.9959 22.1778 0.449219C26.9471 4.96748 31.4654 9.73675 34.9796 14.506ZM38.7448 48.895C44.7691 44.3767 46.2752 35.8422 43.012 29.3159C42.51 28.3118 42.008 27.5588 41.5059 26.5547L34.2265 35.3402C34.2265 35.3402 23.1819 20.2793 22.1778 19.0243C16.1535 26.5547 13.3923 31.073 13.3923 35.8422C13.3923 45.8828 20.4207 51.9071 29.4572 51.9071C32.9714 51.9071 36.2346 50.9031 38.7448 48.895Z" fill="#E4010B"/>
</g>
</svg>
