<svg width="49" height="49" viewBox="0 0 49 49" fill="none" xmlns="http://www.w3.org/2000/svg">
	<circle cx="24.6562" cy="24.8809" r="24" fill="#6E5DC6"/>
	<path d="M11.1562 23.3809H12.6562V32.3809H11.1562H11.1094C10.3125 32.3809 9.60938 31.7246 9.60938 30.9277C9.60938 30.9277 9.65625 30.9277 9.65625 30.8809V24.8809C9.65625 24.084 10.3125 23.3809 11.1094 23.3809C11.1094 23.3809 11.1094 23.3809 11.1562 23.3809ZM35.1562 21.1309V33.8809C35.1094 35.5684 33.7969 36.8809 32.1562 36.8809H17.1562C15.4688 36.8809 14.1562 35.5684 14.1562 33.8809V21.1309C14.1562 19.0684 15.7969 17.3809 17.8594 17.3809C17.8594 17.3809 17.8594 17.3809 17.9062 17.3809H23.1562V14.3809C23.1562 13.584 23.8125 12.8809 24.6562 12.8809C25.4531 12.8809 26.1562 13.584 26.1562 14.3809V17.3809H31.4062C33.4688 17.3809 35.1562 19.0684 35.1562 21.1309ZM22.0312 24.8809C22.0312 23.8496 21.1875 23.0059 20.1562 23.0059C19.0781 23.0059 18.2812 23.8496 18.2812 24.8809C18.2812 25.959 19.0781 26.7559 20.1562 26.7559C21.1875 26.7559 22.0312 25.959 22.0312 24.8809ZM21.6562 30.8809H18.6562V32.3809H21.6562V30.8809ZM26.1562 30.8809H23.1562V32.3809H26.1562V30.8809ZM31.0312 24.8809C31.0312 23.8496 30.1875 23.0059 29.1562 23.0059C28.0781 23.0059 27.2812 23.8496 27.2812 24.8809C27.2812 25.959 28.0781 26.7559 29.1562 26.7559C30.1875 26.7559 31.0312 25.959 31.0312 24.8809ZM30.6562 30.8809H27.6562V32.3809H30.6562V30.8809ZM39.6562 24.8809V30.8809V30.9277C39.6562 31.7246 38.9531 32.4277 38.1562 32.4277V32.3809H36.6562V23.3809H38.1562C38.9531 23.3809 39.6562 24.084 39.6562 24.8809Z" fill="white"/>
</svg>
